<svg width="43" height="33" viewBox="0 0 43 33" fill="none" xmlns="http://www.w3.org/2000/svg">
<path d="M35.5501 3.18031C32.8283 1.93104 29.9559 1.04017 27.0049 0.530032C26.9781 0.525267 26.9507 0.528995 26.9261 0.540685C26.9016 0.552375 26.8812 0.571449 26.868 0.595235C26.4768 1.30559 26.1217 2.03529 25.8042 2.78152C22.6231 2.29817 19.3872 2.29817 16.206 2.78152C15.8863 2.03353 15.5258 1.30367 15.126 0.595235C15.1124 0.571882 15.092 0.553175 15.0676 0.541547C15.0431 0.529919 15.0158 0.525903 14.989 0.530032C12.0373 1.03894 9.16446 1.92985 6.44274 3.18031C6.41954 3.19024 6.39985 3.20689 6.38623 3.22812C1.52103 10.1924 -0.680161 18.6728 0.183767 27.1241C0.18587 27.1432 0.191815 27.1617 0.201144 27.1785C0.210473 27.1952 0.223051 27.21 0.238152 27.2219C3.40707 29.5692 6.95168 31.3612 10.7208 32.5213C10.7475 32.5293 10.7759 32.5289 10.8024 32.5202C10.8288 32.5114 10.8519 32.4948 10.8686 32.4724C11.678 31.3706 12.3955 30.204 13.0136 28.9844C13.0219 28.9676 13.0267 28.9493 13.0275 28.9306C13.0283 28.9119 13.0252 28.8932 13.0183 28.8758C13.0115 28.8584 13.001 28.8426 12.9877 28.8295C12.9743 28.8164 12.9583 28.8062 12.9407 28.7997C11.8095 28.3669 10.7145 27.8451 9.66573 27.2393C9.64681 27.228 9.63088 27.2123 9.61944 27.1935C9.608 27.1747 9.60136 27.1533 9.60007 27.1313C9.59879 27.1094 9.60298 27.0874 9.61215 27.0674C9.62131 27.0474 9.63512 27.0299 9.6526 27.0165C9.86993 26.8513 10.0928 26.6797 10.3047 26.5069C10.3234 26.4916 10.346 26.4818 10.3699 26.4785C10.3939 26.4753 10.4184 26.4787 10.4405 26.4884C13.7415 28.0379 17.3434 28.8412 20.99 28.8412C24.6366 28.8412 28.2385 28.0379 31.5395 26.4884C31.5615 26.4779 31.5861 26.4739 31.6103 26.4768C31.6345 26.4797 31.6574 26.4893 31.6764 26.5047C31.8861 26.6775 32.111 26.8513 32.3283 27.0165C32.3459 27.0298 32.3599 27.0472 32.3692 27.0672C32.3784 27.0871 32.3826 27.1091 32.3814 27.1311C32.3802 27.153 32.3738 27.1744 32.3624 27.1933C32.3511 27.2121 32.3352 27.2279 32.3164 27.2393C31.2702 27.8504 30.1742 28.372 29.0402 28.7986C29.0226 28.8053 29.0066 28.8157 28.9932 28.8291C28.9799 28.8425 28.9695 28.8585 28.9629 28.8762C28.9562 28.8938 28.9534 28.9127 28.9545 28.9315C28.9557 28.9504 28.9609 28.9688 28.9696 28.9855C29.5978 30.1986 30.3139 31.364 31.1124 32.4724C31.1286 32.495 31.1515 32.5119 31.1778 32.5209C31.2041 32.5298 31.2325 32.5304 31.2591 32.5224C35.0352 31.3664 38.5862 29.5741 41.7591 27.223C41.7745 27.2116 41.7874 27.1971 41.7968 27.1805C41.8061 27.1638 41.8118 27.1453 41.8135 27.1263C42.6968 18.6729 40.4922 10.1853 35.6066 3.23029C35.5944 3.20742 35.5743 3.18969 35.5501 3.18031V3.18031ZM14.035 22.3549C12.9961 22.2358 12.0374 21.7387 11.3413 20.9583C10.6452 20.1779 10.2605 19.1687 10.2605 18.123C10.2605 17.0773 10.6452 16.0681 11.3413 15.2877C12.0374 14.5073 12.9961 14.0103 14.035 13.8912C15.074 14.0103 16.0327 14.5073 16.7288 15.2877C17.4249 16.0681 17.8096 17.0773 17.8096 18.123C17.8096 19.1687 17.4249 20.1779 16.7288 20.9583C16.0327 21.7387 15.074 22.2358 14.035 22.3549ZM27.9851 22.3549C26.9462 22.2358 25.9873 21.7387 25.2913 20.9583C24.5952 20.1779 24.2106 19.1687 24.2106 18.123C24.2106 17.0773 24.5952 16.0681 25.2913 15.2877C25.9873 14.5073 26.9462 14.0103 27.9851 13.8912C29.0241 14.0103 29.9828 14.5073 30.6789 15.2877C31.3749 16.0681 31.7595 17.0773 31.7595 18.123C31.7595 19.1687 31.3749 20.1779 30.6789 20.9583C29.9828 21.7387 29.0241 22.2358 27.9851 22.3549Z" fill="#2D2D2D"/>
</svg>
