<svg width="47" height="50" viewBox="0 0 47 50" fill="none" xmlns="http://www.w3.org/2000/svg">
<path d="M45.3744 24.8979C44.9762 23.9432 44.4994 23.0312 43.9525 22.1675L46.0727 7.16019C46.3364 5.29636 45.7698 3.42968 44.5134 2.04033C43.2598 0.650973 41.4761 -0.0905833 39.6195 0.00885914L31.2425 0.45493C31.0433 0.466294 30.8751 0.608355 30.833 0.80724C30.7909 1.00612 30.8807 1.20501 31.0574 1.30161L39.1119 5.66003L35.3707 15.0787C34.3471 14.678 33.2954 14.374 32.2184 14.1723C31.1443 13.9706 30.0477 13.8683 28.9371 13.8683C26.2616 13.8683 23.6703 14.4621 21.3032 15.6014L15.798 6.43C14.8304 4.82187 13.2206 3.7479 11.3809 3.48082C9.5411 3.21659 7.69853 3.79335 6.32713 5.06622L0.143167 10.8055C-0.00266831 10.9418 -0.0419315 11.1606 0.047813 11.3396C0.137558 11.5186 0.336678 11.6152 0.53019 11.5754L9.48221 9.74854L13.5544 22.784C13.0636 23.6307 12.6429 24.5143 12.2923 25.4292C11.6866 25.0087 11.0499 24.6706 10.3853 24.4206C8.5483 23.7301 7.15165 23.9432 7.09556 23.9518C6.89083 23.9859 6.73378 24.1563 6.72256 24.3666C6.71695 24.4575 6.59916 26.614 7.47978 29.1142C8.00142 30.5917 8.76145 31.8787 9.74583 32.9442C10.203 33.4386 10.705 33.8846 11.2547 34.2796C11.8015 38.5641 13.8545 42.5077 17.0516 45.4029C20.3245 48.3691 24.5453 50 28.9399 50C31.349 50 33.6824 49.5227 35.8839 48.5794C38.0069 47.6702 39.9168 46.3661 41.5547 44.7068C43.1925 43.0476 44.4798 41.1155 45.3772 38.9619C46.3083 36.7344 46.7795 34.3676 46.7795 31.927C46.7795 29.4864 46.3027 27.1282 45.3744 24.8979ZM40.0851 5.61741C40.1692 5.40432 40.0823 5.15998 39.8832 5.05201L32.8803 1.26752L39.6644 0.906682C41.2546 0.821446 42.783 1.45788 43.8572 2.64835C44.9313 3.83881 45.4193 5.43842 45.1921 7.03518L43.2065 21.0878C42.7017 20.4088 42.1492 19.7638 41.5491 19.1586C39.9897 17.5789 38.1892 16.3231 36.1868 15.4224L40.0851 5.61741ZM28.9399 49.105C20.6666 49.105 13.6497 43.0674 12.2447 34.9132C12.9177 35.2939 13.6469 35.6093 14.4294 35.8593C14.4742 35.8735 14.5191 35.8792 14.564 35.8792C14.7519 35.8792 14.9258 35.757 14.9875 35.5638C15.0604 35.328 14.9314 35.0751 14.6986 35.0012C13.6834 34.6773 12.7719 34.2398 11.9642 33.6914C11.9362 33.6659 11.9053 33.6431 11.8689 33.6261C10.2394 32.4896 9.05031 30.8872 8.32394 28.8443C7.70695 27.1112 7.61159 25.5229 7.60318 24.8155C8.08275 24.8041 8.98861 24.8553 10.0768 25.2672C12.2559 26.0884 14.1237 27.9749 15.4727 30.7195C15.582 30.9411 15.8485 31.0321 16.0672 30.9213C16.286 30.8104 16.3757 30.5405 16.2663 30.3189C15.4586 28.6795 14.4827 27.3243 13.3609 26.2901C13.2515 26.1906 13.1421 26.0912 13.0299 25.9974C13.2851 25.2928 13.5852 24.6138 13.9218 23.9603L14.2134 24.8922C14.2723 25.0826 14.449 25.2047 14.6369 25.2047C14.6818 25.2047 14.7267 25.1991 14.7715 25.1848C15.0043 25.111 15.1333 24.8581 15.0604 24.6223L14.5219 22.9005L14.1742 21.7924L10.2086 9.09506C10.1413 8.87628 9.91971 8.74559 9.69815 8.79105L1.91843 10.3764L6.92729 5.72822C8.10239 4.63719 9.67852 4.14282 11.2547 4.37012C12.8308 4.59742 14.2106 5.51797 15.038 6.89596L20.5096 16.002L20.9751 16.7749L22.8822 19.9485C23.0084 20.1616 23.2832 20.2269 23.4908 20.0991C23.7011 19.9712 23.7656 19.6928 23.6394 19.4825L21.7716 16.3742C23.9703 15.3344 26.4075 14.7633 28.9399 14.7633C36.6916 14.7633 43.243 20.0593 45.2538 27.2675C45.007 27.168 44.7294 27.1481 44.4545 27.222L39.269 28.654C38.5931 28.8415 38.192 29.5489 38.3771 30.2337C38.5314 30.8048 39.0418 31.1826 39.6027 31.1826C39.7121 31.1826 39.8271 31.1684 39.9365 31.1372L45.122 29.7052C45.3492 29.6427 45.5455 29.5205 45.6997 29.3586C45.8259 30.1967 45.8904 31.0576 45.8904 31.9299C45.8876 41.3996 38.2846 49.105 28.9399 49.105Z" fill="#1D1D1B"/>
<path d="M45.1921 7.03519L43.2065 21.0878C42.7017 20.4088 42.1492 19.7638 41.549 19.1586C39.9897 17.5789 38.1892 16.3231 36.1868 15.4224L40.0822 5.62027C40.1664 5.40717 40.0794 5.16283 39.8803 5.05486L32.8802 1.26753L39.6644 0.906694C41.2545 0.821458 42.783 1.45789 43.8571 2.64836C44.9313 3.83883 45.4192 5.43843 45.1921 7.03519Z" fill="#E03547"/>
<path d="M45.6998 29.3614C45.5455 29.5205 45.3492 29.6427 45.122 29.7081L39.9365 31.14C39.8243 31.1713 39.7121 31.1855 39.6027 31.1855C39.0446 31.1855 38.5314 30.8105 38.3772 30.2365C38.1921 29.5518 38.5903 28.8443 39.269 28.6568L44.4546 27.2248C44.7294 27.1481 45.0099 27.1709 45.2538 27.2703C43.243 20.0622 36.6917 14.7661 28.94 14.7661C26.4075 14.7661 23.9704 15.3372 21.7716 16.3771L23.6394 19.4854C23.7656 19.6985 23.7011 19.9741 23.4908 20.1019C23.2805 20.2298 23.0084 20.1644 22.8822 19.9513L20.9751 16.7777L20.5096 16.0049L15.0408 6.89882C14.2135 5.52083 12.8336 4.60027 11.2575 4.37298C9.68136 4.14568 8.10242 4.64005 6.93013 5.73108L1.91846 10.3765L9.69819 8.79106C9.91974 8.7456 10.1413 8.8763 10.2086 9.09507L14.1742 21.7925L14.5192 22.8977L15.0576 24.6195C15.1305 24.8553 15.0015 25.1081 14.7688 25.182C14.7239 25.1962 14.679 25.2019 14.6341 25.2019C14.4462 25.2019 14.2724 25.0797 14.2107 24.8894L13.919 23.9575C13.5824 24.6109 13.2824 25.29 13.0271 25.9946C13.1393 26.0884 13.2487 26.185 13.3581 26.2872C14.4799 27.3215 15.4559 28.6767 16.2636 30.3161C16.3729 30.5377 16.2832 30.8076 16.0644 30.9184C15.8457 31.0292 15.5793 30.9383 15.4699 30.7167C14.1181 27.9721 12.2531 26.0855 10.074 25.2644C8.98304 24.8524 8.07998 24.8013 7.60041 24.8127C7.60882 25.523 7.70698 27.1084 8.32117 28.8415C9.04754 30.8872 10.2338 32.4868 11.8661 33.6233C11.8997 33.6403 11.9306 33.663 11.9614 33.6886C12.7663 34.237 13.6806 34.6745 14.6958 34.9984C14.9286 35.0723 15.0604 35.3251 14.9847 35.561C14.9258 35.7513 14.7491 35.8763 14.5612 35.8763C14.5163 35.8763 14.4715 35.8707 14.4266 35.8565C13.6441 35.6064 12.915 35.291 12.2419 34.9103C13.6469 43.0646 20.6638 49.1022 28.9372 49.1022C38.2818 49.1022 45.8877 41.3997 45.8877 31.9299C45.8877 31.0576 45.8232 30.1996 45.6998 29.3614ZM15.0071 33.0749C14.9623 33.092 14.9146 33.1005 14.8697 33.1005C14.7127 33.1005 14.564 33.0039 14.5051 32.8448C14.0845 31.7111 13.5039 30.748 12.8869 29.9524L11.9614 31.4725C11.8885 31.5946 11.7595 31.66 11.6305 31.66C11.5604 31.66 11.4903 31.6401 11.4258 31.6003C11.2435 31.4867 11.1846 31.2423 11.2996 31.0576L12.0792 29.7763C9.9562 29.5603 8.80355 28.3897 8.75026 28.3358C8.59882 28.1795 8.60162 27.9295 8.75587 27.7789C8.91012 27.6255 9.15691 27.6283 9.30555 27.7846C9.31397 27.7931 9.62246 28.1028 10.1946 28.4068C10.7667 28.7108 11.3865 28.9012 12.0456 28.9807C11.6726 28.5915 11.308 28.2619 10.977 27.9891C9.73745 26.9663 8.68856 26.4947 8.67734 26.489C8.48103 26.4009 8.39128 26.1679 8.47822 25.969C8.56516 25.7701 8.79513 25.6792 8.99145 25.7673C9.03632 25.7872 10.1301 26.2787 11.4482 27.3612C12.2223 27.9948 12.9122 28.7051 13.5011 29.4666C14.2415 30.4241 14.822 31.4668 15.2315 32.5692C15.31 32.7709 15.2091 32.9982 15.0071 33.0749ZM27.204 36.3764C26.0149 36.3764 25.0529 35.399 25.0529 34.1972C25.0529 32.9954 26.0177 32.018 27.204 32.018C28.3903 32.018 29.355 32.9954 29.355 34.1972C29.355 35.399 28.3931 36.3764 27.204 36.3764ZM31.0209 30.2365C30.8667 30.8076 30.3563 31.1855 29.7954 31.1855C29.686 31.1855 29.571 31.1713 29.4616 31.14L24.2761 29.7081C23.6002 29.5205 23.1991 28.8131 23.3842 28.1284C23.5693 27.4436 24.2677 27.0373 24.9435 27.2248L30.1291 28.6568C30.8078 28.8415 31.206 29.549 31.0209 30.2365ZM38.2173 39.3114C37.0955 39.766 35.9681 39.9933 34.8407 39.9933C33.7133 39.9933 32.583 39.766 31.464 39.3114C31.2565 39.2261 31.1555 38.9903 31.2397 38.7801C31.3238 38.5698 31.5566 38.4675 31.7641 38.5528C33.8058 39.3796 35.8783 39.3796 37.92 38.5528C38.1276 38.4675 38.3603 38.5698 38.4445 38.7801C38.523 38.9875 38.4249 39.2261 38.2173 39.3114ZM42.5222 36.3764C41.3331 36.3764 40.3712 35.399 40.3712 34.1972C40.3712 32.9954 41.3359 32.018 42.5222 32.018C43.7086 32.018 44.6733 32.9954 44.6733 34.1972C44.6733 35.399 43.7114 36.3764 42.5222 36.3764Z" fill="#E03547"/>
<path d="M15.0071 33.0749C14.9622 33.0919 14.9145 33.1005 14.8697 33.1005C14.7126 33.1005 14.564 33.0039 14.5051 32.8448C14.0844 31.7111 13.5039 30.7479 12.8869 29.9524L11.9614 31.4724C11.8885 31.5946 11.7594 31.66 11.6304 31.66C11.5603 31.66 11.4902 31.6401 11.4257 31.6003C11.2434 31.4867 11.1845 31.2423 11.2995 31.0576L12.0792 29.7762C9.95614 29.5603 8.80348 28.3897 8.7502 28.3357C8.59875 28.1795 8.60156 27.9295 8.75581 27.7789C8.91006 27.6254 9.15685 27.6283 9.30549 27.7846C9.31391 27.7931 9.6224 28.1028 10.1945 28.4068C10.7666 28.7108 11.3864 28.9011 12.0455 28.9807C11.6725 28.5915 11.3079 28.2619 10.977 27.9891C9.73739 26.9663 8.6885 26.4946 8.67728 26.489C8.48097 26.4009 8.39122 26.1679 8.47816 25.969C8.5651 25.7701 8.79507 25.6792 8.99139 25.7673C9.03626 25.7872 10.13 26.2787 11.4481 27.3612C12.2222 27.9948 12.9121 28.7051 13.5011 29.4665C14.2414 30.424 14.822 31.4668 15.2314 32.5692C15.31 32.7709 15.209 32.9982 15.0071 33.0749Z" fill="#1D1D1B"/>
<path d="M29.2964 34.7004C29.5694 33.5291 28.8534 32.3554 27.6973 32.0788C26.5411 31.8022 25.3826 32.5275 25.1095 33.6988C24.8365 34.8701 25.5525 36.0438 26.7086 36.3204C27.8648 36.597 29.0234 35.8717 29.2964 34.7004Z" fill="#1D1D1B"/>
<path d="M44.6161 34.7021C44.8891 33.5309 44.1731 32.3571 43.017 32.0805C41.8608 31.804 40.7023 32.5293 40.4293 33.7006C40.1562 34.8719 40.8722 36.0456 42.0284 36.3222C43.1845 36.5987 44.3431 35.8734 44.6161 34.7021Z" fill="#1D1D1B"/>
<path d="M38.2173 39.3114C37.0955 39.766 35.9681 39.9933 34.8406 39.9933C33.7132 39.9933 32.583 39.766 31.464 39.3114C31.2565 39.2261 31.1555 38.9903 31.2396 38.7801C31.3238 38.5698 31.5565 38.4675 31.7641 38.5528C33.8058 39.3796 35.8783 39.3796 37.92 38.5528C38.1275 38.4675 38.3603 38.5698 38.4444 38.7801C38.523 38.9875 38.4248 39.2261 38.2173 39.3114Z" fill="#1D1D1B"/>
<path d="M31.021 30.2365C30.8667 30.8076 30.3563 31.1855 29.7954 31.1855C29.686 31.1855 29.571 31.1713 29.4616 31.14L24.2761 29.708C23.6002 29.5205 23.1992 28.8131 23.3843 28.1283C23.5694 27.4436 24.2677 27.0373 24.9436 27.2248L30.1291 28.6568C30.8078 28.8415 31.2061 29.5489 31.021 30.2365Z" fill="#1D1D1B"/>
</svg>
