<svg width="34" height="34" viewBox="0 0 34 34" fill="none" xmlns="http://www.w3.org/2000/svg">
<path d="M22.1635 16.528C22.1635 17.5723 21.8539 18.5931 21.2737 19.4614C20.6935 20.3297 19.8689 21.0065 18.9041 21.4061C17.9393 21.8057 16.8777 21.9103 15.8535 21.7066C14.8292 21.5028 13.8884 21 13.15 20.2615C12.4116 19.5231 11.9087 18.5823 11.705 17.5581C11.5013 16.5339 11.6058 15.4722 12.0055 14.5074C12.4051 13.5427 13.0818 12.718 13.9501 12.1379C14.8184 11.5577 15.8393 11.248 16.8835 11.248C18.2834 11.2496 19.6255 11.8064 20.6153 12.7963C21.6051 13.7861 22.1619 15.1282 22.1635 16.528ZM33.3835 9.26802V23.788C33.3808 26.2378 32.4064 28.5864 30.6741 30.3186C28.9419 32.0509 26.5933 33.0252 24.1435 33.028H9.62355C7.1738 33.0252 4.82518 32.0509 3.09294 30.3186C1.36071 28.5864 0.386319 26.2378 0.383545 23.788V9.26802C0.386319 6.81827 1.36071 4.46965 3.09294 2.73741C4.82518 1.00518 7.1738 0.0307896 9.62355 0.0280151H24.1435C26.5933 0.0307896 28.9419 1.00518 30.6741 2.73741C32.4064 4.46965 33.3808 6.81827 33.3835 9.26802ZM24.8035 16.528C24.8035 14.9616 24.339 13.4303 23.4688 12.1279C22.5985 10.8255 21.3616 9.81034 19.9144 9.21089C18.4672 8.61144 16.8748 8.4546 15.3384 8.7602C13.8021 9.06579 12.3909 9.8201 11.2833 10.9277C10.1756 12.0354 9.42132 13.4466 9.11573 14.9829C8.81013 16.5192 8.96697 18.1117 9.56642 19.5589C10.1659 21.0061 11.181 22.243 12.4834 23.1133C13.7859 23.9835 15.3171 24.448 16.8835 24.448C18.9833 24.4456 20.9964 23.6105 22.4812 22.1257C23.966 20.6409 24.8012 18.6278 24.8035 16.528ZM27.4435 7.94802C27.4435 7.55641 27.3274 7.1736 27.1099 6.84799C26.8923 6.52238 26.5831 6.2686 26.2213 6.11873C25.8595 5.96887 25.4614 5.92966 25.0773 6.00606C24.6932 6.08246 24.3404 6.27104 24.0635 6.54794C23.7866 6.82485 23.598 7.17765 23.5216 7.56174C23.4452 7.94582 23.4844 8.34393 23.6343 8.70573C23.7841 9.06753 24.0379 9.37676 24.3635 9.59433C24.6891 9.81189 25.0719 9.92802 25.4635 9.92802C25.9887 9.92802 26.4923 9.71941 26.8636 9.34809C27.2349 8.97677 27.4435 8.47314 27.4435 7.94802Z" fill="#2D2D2D"/>
</svg>
