<svg width="34" height="34" viewBox="0 0 34 34" fill="none" xmlns="http://www.w3.org/2000/svg">
<path d="M22.1634 16.528C22.1634 17.5723 21.8538 18.5931 21.2736 19.4614C20.6934 20.3297 19.8688 21.0065 18.904 21.4061C17.9392 21.8057 16.8776 21.9103 15.8533 21.7066C14.8291 21.5028 13.8883 21 13.1499 20.2615C12.4115 19.5231 11.9086 18.5823 11.7049 17.5581C11.5011 16.5339 11.6057 15.4722 12.0053 14.5074C12.405 13.5427 13.0817 12.718 13.95 12.1379C14.8183 11.5577 15.8391 11.248 16.8834 11.248C18.2833 11.2496 19.6253 11.8064 20.6152 12.7963C21.605 13.7861 22.1618 15.1282 22.1634 16.528ZM33.3834 9.26802V23.788C33.3806 26.2378 32.4063 28.5864 30.674 30.3186C28.9418 32.0509 26.5932 33.0252 24.1434 33.028H9.62342C7.17367 33.0252 4.82506 32.0509 3.09282 30.3186C1.36059 28.5864 0.386197 26.2378 0.383423 23.788V9.26802C0.386197 6.81827 1.36059 4.46965 3.09282 2.73741C4.82506 1.00518 7.17367 0.0307896 9.62342 0.0280151H24.1434C26.5932 0.0307896 28.9418 1.00518 30.674 2.73741C32.4063 4.46965 33.3806 6.81827 33.3834 9.26802ZM24.8034 16.528C24.8034 14.9616 24.3389 13.4303 23.4687 12.1279C22.5984 10.8255 21.3615 9.81034 19.9143 9.21089C18.4671 8.61144 16.8746 8.4546 15.3383 8.7602C13.802 9.06579 12.3908 9.8201 11.2831 10.9277C10.1755 12.0354 9.4212 13.4466 9.1156 14.9829C8.81001 16.5192 8.96685 18.1117 9.5663 19.5589C10.1657 21.0061 11.1809 22.243 12.4833 23.1133C13.7857 23.9835 15.317 24.448 16.8834 24.448C18.9832 24.4456 20.9963 23.6105 22.4811 22.1257C23.9659 20.6409 24.801 18.6278 24.8034 16.528ZM27.4434 7.94802C27.4434 7.55641 27.3273 7.1736 27.1097 6.84799C26.8922 6.52238 26.5829 6.2686 26.2211 6.11873C25.8593 5.96887 25.4612 5.92966 25.0771 6.00606C24.6931 6.08246 24.3403 6.27104 24.0634 6.54794C23.7864 6.82485 23.5979 7.17765 23.5215 7.56174C23.4451 7.94582 23.4843 8.34393 23.6341 8.70573C23.784 9.06753 24.0378 9.37676 24.3634 9.59433C24.689 9.81189 25.0718 9.92802 25.4634 9.92802C25.9886 9.92802 26.4922 9.71941 26.8635 9.34809C27.2348 8.97677 27.4434 8.47314 27.4434 7.94802Z" fill="#2D2D2D"/>
</svg>
