<svg width="34" height="34" viewBox="0 0 34 34" fill="none" xmlns="http://www.w3.org/2000/svg">
<path d="M16.3836 1.17185e-07C13.2191 1.17185e-07 10.1256 0.938375 7.49443 2.69648C4.86324 4.45458 2.81249 6.95344 1.60149 9.87706C0.390487 12.8007 0.0736207 16.0177 0.690984 19.1214C1.30835 22.2251 2.83216 25.0761 5.0698 27.3137C7.30744 29.5513 10.1584 31.0752 13.2621 31.6926C16.3658 32.3099 19.5829 31.9931 22.5065 30.7821C25.4301 29.5711 27.9289 27.5203 29.687 24.8891C31.4451 22.2579 32.3835 19.1645 32.3835 16C32.3838 13.8988 31.9701 11.8181 31.1661 9.87677C30.3622 7.93544 29.1836 6.17152 27.6978 4.68573C26.212 3.19995 24.4482 2.02138 22.5068 1.21739C20.5655 0.413409 18.4848 -0.000254191 16.3836 1.17185e-07ZM6.72915 16.1665L6.80561 16.0416L11.583 8.56631C11.5987 8.54082 11.621 8.52009 11.6477 8.50637C11.6743 8.49265 11.7042 8.48648 11.734 8.48847C11.7639 8.49046 11.7927 8.50055 11.8172 8.51768C11.8418 8.53482 11.8612 8.55831 11.8734 8.58566C12.6739 10.3746 13.3613 12.6021 13.0351 13.9845C12.8158 14.7097 12.4996 15.402 12.095 16.0426C12.0408 16.1442 11.9798 16.2468 11.915 16.3466C11.9004 16.3686 11.8805 16.3866 11.8572 16.3989C11.8338 16.4113 11.8078 16.4176 11.7814 16.4172H6.86564C6.83584 16.4179 6.80643 16.4103 6.78067 16.3953C6.75492 16.3803 6.73382 16.3585 6.7197 16.3322C6.70557 16.306 6.69901 16.2763 6.70067 16.2466C6.70234 16.2168 6.71219 16.1881 6.72915 16.1636V16.1665ZM27.9238 18.8925C27.1012 19.2146 26.3615 19.7179 25.7601 20.3649C24.4193 22.2333 23.3923 24.909 21.0971 24.909H11.523C9.89094 24.9062 8.32675 24.2553 7.17454 23.0994C6.02232 21.9436 5.37638 20.3774 5.3787 18.7454V18.6331C5.37895 18.6115 5.38343 18.5902 5.39193 18.5703C5.40044 18.5504 5.41275 18.5324 5.42821 18.5173C5.44367 18.5022 5.46203 18.4903 5.4821 18.4823C5.50216 18.4742 5.52359 18.4702 5.5452 18.4705H10.8792C10.9042 18.4714 10.9288 18.4775 10.9514 18.4882C10.974 18.499 10.9942 18.5143 11.0107 18.5332C11.0272 18.552 11.0397 18.574 11.0473 18.5979C11.055 18.6217 11.0578 18.6469 11.0554 18.6718C11.0183 19.0248 11.0856 19.3809 11.2489 19.696C11.4039 20.0103 11.6437 20.2748 11.9412 20.4597C12.2387 20.6447 12.5821 20.7426 12.9324 20.7425H15.5752V18.6815H12.9615C12.9308 18.6809 12.9008 18.672 12.8747 18.6558C12.8487 18.6396 12.8276 18.6166 12.8135 18.5893C12.7994 18.5621 12.7929 18.5315 12.7947 18.5009C12.7966 18.4702 12.8068 18.4407 12.824 18.4153C12.8531 18.3708 12.885 18.3262 12.9208 18.2749C13.1667 17.9264 13.519 17.3795 13.8714 16.758C14.1181 16.3335 14.3383 15.8941 14.5307 15.4424C14.5672 15.3632 14.5995 15.282 14.6274 15.1994C14.6788 15.0552 14.733 14.9216 14.7717 14.787C14.8066 14.6747 14.8385 14.5537 14.8685 14.4443C14.9572 14.0485 15.0002 13.6438 14.9964 13.2381C14.9964 13.0745 14.9905 12.9022 14.974 12.7386C14.9644 12.5595 14.9421 12.3805 14.9198 12.2014C14.9037 12.0389 14.8792 11.8773 14.8463 11.7173C14.8076 11.4773 14.7563 11.2401 14.6953 11.001L14.6759 10.9109C14.6285 10.7483 14.5927 10.5915 14.5385 10.4269C14.3913 9.9119 14.219 9.40949 14.036 8.94192C13.9721 8.75315 13.8957 8.57405 13.8182 8.39496C13.7098 8.12585 13.5946 7.879 13.4919 7.6486C13.4377 7.54308 13.3952 7.44724 13.3487 7.34753C13.3023 7.24782 13.2461 7.12391 13.1919 7.01839C13.1532 6.93805 13.1116 6.86156 13.0806 6.78799L12.7572 6.18972C12.7475 6.17146 12.7434 6.15075 12.7453 6.13016C12.7473 6.10958 12.7553 6.09003 12.7683 6.07394C12.7813 6.05785 12.7988 6.04594 12.8185 6.03967C12.8382 6.03341 12.8593 6.03309 12.8792 6.03873L14.8985 6.58568H14.9112L15.1763 6.65924L15.4668 6.7425L15.5762 6.77443V5.57503C15.5747 5.29842 15.6829 5.03252 15.8773 4.83575C16.0717 4.63898 16.3363 4.52743 16.6129 4.52564C16.7499 4.52513 16.8855 4.55203 17.0119 4.60473C17.1382 4.65743 17.2527 4.73489 17.3487 4.83253C17.5435 5.03053 17.6527 5.29722 17.6526 5.57503V7.35429L17.8676 7.4153C17.8849 7.42114 17.9013 7.42963 17.916 7.44047C17.9702 7.47919 18.0437 7.53726 18.1405 7.60987C18.217 7.67086 18.2974 7.74442 18.3961 7.818C18.5898 7.97482 18.8211 8.1762 19.0737 8.4095C19.1415 8.46758 19.2084 8.5276 19.2674 8.58859C19.5937 8.89643 19.9614 9.2546 20.3138 9.64763C20.4106 9.75993 20.5075 9.87512 20.6043 9.99322C20.7011 10.1113 20.8056 10.2333 20.8946 10.3514C21.0137 10.5082 21.1405 10.6747 21.2528 10.8441C21.3041 10.9274 21.3652 11.0107 21.4165 11.091C21.5607 11.3088 21.6856 11.5324 21.8037 11.757C21.855 11.8625 21.9091 11.9739 21.9537 12.0861C22.0877 12.3786 22.191 12.6842 22.2616 12.9981C22.2815 13.0638 22.2954 13.1312 22.3032 13.1994V13.212C22.3242 13.3056 22.3371 13.4008 22.3419 13.4966C22.3746 13.8119 22.3576 14.1304 22.2915 14.4405C22.2286 14.7081 22.1407 14.9694 22.0292 15.2207C21.9162 15.4901 21.7803 15.7492 21.6227 15.9952C21.5752 16.0852 21.5142 16.181 21.4532 16.273C21.3922 16.365 21.3197 16.4589 21.2597 16.5479C21.1764 16.6602 21.0873 16.7783 20.9973 16.8838C20.9193 16.9963 20.8349 17.1042 20.7447 17.2072C20.6169 17.3543 20.4948 17.4976 20.3699 17.6331C20.2925 17.7231 20.2132 17.8122 20.1299 17.8926C20.0467 17.9729 19.9673 18.0658 19.8898 18.1423C19.762 18.2672 19.6566 18.3669 19.5695 18.4463L19.3612 18.6399C19.3299 18.6659 19.2907 18.6806 19.2499 18.6815H17.6429V20.7377H19.6653C20.116 20.7376 20.5517 20.5762 20.8937 20.2827C21.3352 19.899 21.7528 19.4887 22.1444 19.0542C22.164 19.0302 22.1908 19.0133 22.2209 19.0058L27.8114 17.3901C27.8359 17.3834 27.8616 17.3824 27.8866 17.3873C27.9115 17.3922 27.935 17.4028 27.9552 17.4183C27.9754 17.4337 27.9917 17.4537 28.0028 17.4765C28.014 17.4993 28.0198 17.5244 28.0196 17.5499V18.7309C28.0202 18.7638 28.0113 18.7962 27.9942 18.8244C27.9771 18.8525 27.9523 18.8751 27.9227 18.8896L27.9238 18.8925Z" fill="#2D2D2D"/>
</svg>
