<svg width="34" height="34" viewBox="0 0 34 34" fill="none" xmlns="http://www.w3.org/2000/svg">
<path d="M16.3835 1.17185e-07C13.219 1.17185e-07 10.1255 0.938375 7.4943 2.69648C4.86312 4.45458 2.81237 6.95344 1.60137 9.87706C0.390365 12.8007 0.0734986 16.0177 0.690862 19.1214C1.30823 22.2251 2.83204 25.0761 5.06968 27.3137C7.30732 29.5513 10.1583 31.0752 13.262 31.6926C16.3657 32.3099 19.5827 31.9931 22.5064 30.7821C25.43 29.5711 27.9288 27.5203 29.6869 24.8891C31.445 22.2579 32.3834 19.1645 32.3834 16C32.3837 13.8988 31.97 11.8181 31.166 9.87677C30.362 7.93544 29.1835 6.17152 27.6977 4.68573C26.2119 3.19995 24.448 2.02138 22.5067 1.21739C20.5654 0.413409 18.4847 -0.000254191 16.3835 1.17185e-07ZM6.72903 16.1665L6.80549 16.0416L11.5829 8.56631C11.5986 8.54082 11.6209 8.52009 11.6475 8.50637C11.6741 8.49265 11.704 8.48648 11.7339 8.48847C11.7638 8.49046 11.7925 8.50055 11.8171 8.51768C11.8417 8.53482 11.861 8.55831 11.8732 8.58566C12.6738 10.3746 13.3612 12.6021 13.035 13.9845C12.8157 14.7097 12.4995 15.402 12.0949 16.0426C12.0407 16.1442 11.9797 16.2468 11.9148 16.3466C11.9003 16.3686 11.8804 16.3866 11.857 16.3989C11.8337 16.4113 11.8077 16.4176 11.7813 16.4172H6.86552C6.83572 16.4179 6.8063 16.4103 6.78055 16.3953C6.7548 16.3803 6.7337 16.3585 6.71958 16.3322C6.70545 16.306 6.69889 16.2763 6.70055 16.2466C6.70221 16.2168 6.71207 16.1881 6.72903 16.1636V16.1665ZM27.9237 18.8925C27.101 19.2146 26.3614 19.7179 25.7599 20.3649C24.4192 22.2333 23.3922 24.909 21.0969 24.909H11.5229C9.89082 24.9062 8.32663 24.2553 7.17442 23.0994C6.0222 21.9436 5.37626 20.3774 5.37858 18.7454V18.6331C5.37883 18.6115 5.38331 18.5902 5.39181 18.5703C5.40032 18.5504 5.41263 18.5324 5.42809 18.5173C5.44355 18.5022 5.46191 18.4903 5.48197 18.4823C5.50204 18.4742 5.52347 18.4702 5.54508 18.4705H10.8791C10.9041 18.4714 10.9287 18.4775 10.9513 18.4882C10.9739 18.499 10.9941 18.5143 11.0106 18.5332C11.0271 18.552 11.0395 18.574 11.0472 18.5979C11.0549 18.6217 11.0577 18.6469 11.0553 18.6718C11.0182 19.0248 11.0855 19.3809 11.2488 19.696C11.4037 20.0103 11.6435 20.2748 11.9411 20.4597C12.2386 20.6447 12.582 20.7426 12.9323 20.7425H15.5751V18.6815H12.9614C12.9307 18.6809 12.9007 18.672 12.8746 18.6558C12.8486 18.6396 12.8275 18.6166 12.8134 18.5893C12.7993 18.5621 12.7928 18.5315 12.7946 18.5009C12.7965 18.4702 12.8067 18.4407 12.8239 18.4153C12.853 18.3708 12.8849 18.3262 12.9207 18.2749C13.1666 17.9264 13.5189 17.3795 13.8713 16.758C14.118 16.3335 14.3382 15.8941 14.5305 15.4424C14.567 15.3632 14.5993 15.282 14.6273 15.1994C14.6786 15.0552 14.7329 14.9216 14.7716 14.787C14.8065 14.6747 14.8384 14.5537 14.8684 14.4443C14.9571 14.0485 15.0001 13.6438 14.9963 13.2381C14.9963 13.0745 14.9904 12.9022 14.9739 12.7386C14.9642 12.5595 14.9419 12.3805 14.9197 12.2014C14.9036 12.0389 14.8791 11.8773 14.8462 11.7173C14.8075 11.4773 14.7561 11.2401 14.6952 11.001L14.6758 10.9109C14.6283 10.7483 14.5926 10.5915 14.5383 10.4269C14.3912 9.9119 14.2188 9.40949 14.0359 8.94192C13.972 8.75315 13.8955 8.57405 13.8181 8.39496C13.7097 8.12585 13.5944 7.879 13.4918 7.6486C13.4376 7.54308 13.3951 7.44724 13.3486 7.34753C13.3021 7.24782 13.246 7.12391 13.1918 7.01839C13.1531 6.93805 13.1114 6.86156 13.0805 6.78799L12.757 6.18972C12.7473 6.17146 12.7432 6.15075 12.7452 6.13016C12.7472 6.10958 12.7551 6.09003 12.7681 6.07394C12.7811 6.05785 12.7987 6.04594 12.8184 6.03967C12.8381 6.03341 12.8592 6.03309 12.8791 6.03873L14.8984 6.58568H14.9111L15.1762 6.65924L15.4667 6.7425L15.5761 6.77443V5.57503C15.5746 5.29842 15.6828 5.03252 15.8772 4.83575C16.0716 4.63898 16.3362 4.52743 16.6128 4.52564C16.7497 4.52513 16.8854 4.55203 17.0118 4.60473C17.1381 4.65743 17.2526 4.73489 17.3486 4.83253C17.5434 5.03053 17.6526 5.29722 17.6525 5.57503V7.35429L17.8674 7.4153C17.8848 7.42114 17.9012 7.42963 17.9159 7.44047C17.9701 7.47919 18.0436 7.53726 18.1404 7.60987C18.2169 7.67086 18.2973 7.74442 18.396 7.818C18.5896 7.97482 18.821 8.1762 19.0736 8.4095C19.1414 8.46758 19.2082 8.5276 19.2673 8.58859C19.5935 8.89643 19.9613 9.2546 20.3137 9.64763C20.4105 9.75993 20.5074 9.87512 20.6042 9.99322C20.701 10.1113 20.8054 10.2333 20.8945 10.3514C21.0136 10.5082 21.1404 10.6747 21.2527 10.8441C21.304 10.9274 21.365 11.0107 21.4163 11.091C21.5606 11.3088 21.6855 11.5324 21.8036 11.757C21.8549 11.8625 21.909 11.9739 21.9536 12.0861C22.0876 12.3786 22.1909 12.6842 22.2615 12.9981C22.2814 13.0638 22.2953 13.1312 22.3031 13.1994V13.212C22.3241 13.3056 22.3369 13.4008 22.3417 13.4966C22.3744 13.8119 22.3575 14.1304 22.2914 14.4405C22.2284 14.7081 22.1406 14.9694 22.0291 15.2207C21.9161 15.4901 21.7802 15.7492 21.6226 15.9952C21.5751 16.0852 21.5141 16.181 21.4531 16.273C21.3921 16.365 21.3196 16.4589 21.2595 16.5479C21.1763 16.6602 21.0872 16.7783 20.9972 16.8838C20.9191 16.9963 20.8348 17.1042 20.7445 17.2072C20.6168 17.3543 20.4947 17.4976 20.3698 17.6331C20.2924 17.7231 20.2131 17.8122 20.1298 17.8926C20.0466 17.9729 19.9671 18.0658 19.8897 18.1423C19.7619 18.2672 19.6565 18.3669 19.5693 18.4463L19.3611 18.6399C19.3298 18.6659 19.2905 18.6806 19.2498 18.6815H17.6428V20.7377H19.6652C20.1159 20.7376 20.5516 20.5762 20.8936 20.2827C21.335 19.899 21.7527 19.4887 22.1443 19.0542C22.1639 19.0302 22.1907 19.0133 22.2207 19.0058L27.8113 17.3901C27.8358 17.3834 27.8615 17.3824 27.8864 17.3873C27.9114 17.3922 27.9349 17.4028 27.9551 17.4183C27.9752 17.4337 27.9915 17.4537 28.0027 17.4765C28.0139 17.4993 28.0196 17.5244 28.0195 17.5499V18.7309C28.0201 18.7638 28.0112 18.7962 27.9941 18.8244C27.9769 18.8525 27.9521 18.8751 27.9226 18.8896L27.9237 18.8925Z" fill="#2D2D2D"/>
</svg>
