<svg width="40" height="33" viewBox="0 0 40 33" fill="none" xmlns="http://www.w3.org/2000/svg">
<path d="M39.3783 4.30928C37.9052 4.96222 36.3428 5.39116 34.7429 5.58189C36.4302 4.5723 37.6927 2.9836 38.2952 1.11194C36.7096 2.05294 34.9748 2.71601 33.1657 3.07249C31.9473 1.77798 30.3364 0.920996 28.5819 0.634065C26.8275 0.347135 25.0274 0.646252 23.4601 1.48515C21.8927 2.32405 20.6454 3.65599 19.9111 5.27498C19.1768 6.89397 18.9964 8.7098 19.3977 10.4416C16.1853 10.2808 13.0426 9.44616 10.1737 7.99184C7.30479 6.53752 4.77389 4.49607 2.74525 2.00003C1.71231 3.77882 1.39582 5.88432 1.86023 7.88816C2.32464 9.892 3.53512 11.6436 5.24523 12.7867C3.9622 12.7465 2.70738 12.4001 1.58541 11.7764C1.58541 11.8101 1.58541 11.8438 1.58541 11.8818C1.58559 13.7473 2.23103 15.5554 3.4123 16.9993C4.59356 18.4433 6.2379 19.4342 8.06644 19.804C6.87639 20.1272 5.62824 20.1744 4.41717 19.942C4.93326 21.5473 5.93816 22.9511 7.29138 23.9572C8.64459 24.9632 10.2784 25.5211 11.9643 25.5529C9.10266 27.7989 5.56877 29.0171 1.93096 29.0115C1.28703 29.0117 0.643662 28.9741 0.00415039 28.8987C3.69835 31.2725 7.99784 32.5324 12.3889 32.528C27.2484 32.528 35.375 20.217 35.375 9.54091C35.375 9.18974 35.3673 8.84138 35.3518 8.49584C36.9337 7.3526 38.2989 5.93629 39.3834 4.31349" fill="#2D2D2D"/>
</svg>
