<svg width="40" height="33" viewBox="0 0 40 33" fill="none" xmlns="http://www.w3.org/2000/svg">
<path d="M39.3783 4.30928C37.9053 4.96222 36.3429 5.39116 34.7429 5.58189C36.4302 4.5723 37.6927 2.9836 38.2953 1.11194C36.7096 2.05294 34.9748 2.71601 33.1658 3.07249C31.9474 1.77798 30.3364 0.920996 28.582 0.634065C26.8276 0.347135 25.0275 0.646252 23.4601 1.48515C21.8928 2.32405 20.6455 3.65599 19.9112 5.27498C19.1769 6.89397 18.9964 8.7098 19.3978 10.4416C16.1854 10.2808 13.0426 9.44616 10.1737 7.99184C7.30485 6.53752 4.77395 4.49607 2.74531 2.00003C1.71237 3.77882 1.39588 5.88432 1.86029 7.88816C2.3247 9.892 3.53518 11.6436 5.24529 12.7867C3.96226 12.7465 2.70744 12.4001 1.58547 11.7764C1.58547 11.8101 1.58547 11.8438 1.58547 11.8818C1.58565 13.7473 2.23109 15.5554 3.41236 16.9993C4.59362 18.4433 6.23796 19.4342 8.06651 19.804C6.87645 20.1272 5.6283 20.1744 4.41724 19.942C4.93332 21.5473 5.93822 22.9511 7.29144 23.9572C8.64465 24.9632 10.2784 25.5211 11.9644 25.5529C9.10272 27.7989 5.56883 29.0171 1.93102 29.0115C1.28709 29.0117 0.643723 28.9741 0.00421143 28.8987C3.69842 31.2725 7.9979 32.5324 12.389 32.528C27.2484 32.528 35.375 20.217 35.375 9.54091C35.375 9.18974 35.3673 8.84138 35.3519 8.49584C36.9338 7.3526 38.299 5.93629 39.3835 4.31349" fill="#2D2D2D"/>
</svg>
